<svg id="SvgjsSvg1035" xmlns="http://www.w3.org/2000/svg" version="1.1" xmlns:xlink="http://www.w3.org/1999/xlink" xmlns:svgjs="http://svgjs.com/svgjs" width="32" height="32"><defs id="SvgjsDefs1036"></defs><path id="SvgjsPath1037" d="M991 4286C982.164 4286 975 4278.84 975 4270C975 4261.16 982.164 4254 991 4254C999.837 4254 1007 4261.16 1007 4270C1007 4278.84 999.837 4286 991 4286ZM991 4257C983.82 4257 978 4262.82 978 4270C978 4277.18 983.82 4283 991 4283C998.18 4283 1004 4277.18 1004 4270C1004 4262.82 998.18 4257 991 4257ZM991 4279.5C985.753 4279.5 981.5 4275.24 981.5 4270C981.5 4264.75 985.753 4260.5 991 4260.5C996.247 4260.5 1000.5 4264.75 1000.5 4270C1000.5 4275.24 996.247 4279.5 991 4279.5ZM991 4263.5C987.41 4263.5 984.5 4266.41 984.5 4270C984.5 4273.59 987.41 4276.5 991 4276.5C994.59 4276.5 997.5 4273.59 997.5 4270C997.5 4266.41 994.59 4263.5 991 4263.5ZM994 4270C994 4268.34 992.657 4267 991 4267C989.343 4267 988 4268.34 988 4270C988 4271.66 989.343 4273 991 4273C992.657 4273 994 4271.66 994 4270Z " fill="#95e1d3" transform="matrix(1,0,0,1,-975,-4254)"></path></svg>