<svg id="SvgjsSvg1029" xmlns="http://www.w3.org/2000/svg" version="1.1" xmlns:xlink="http://www.w3.org/1999/xlink" xmlns:svgjs="http://svgjs.com/svgjs" width="30" height="30"><defs id="SvgjsDefs1030"></defs><path id="SvgjsPath1031" d="M1006 3959C1006 3959.65 1005.58 3960.2 1005 3960.41L1005 3962.0899999999997C1005.58 3962.2999999999997 1006 3962.85 1006 3963.4999999999995C1006 3964.3299999999995 1005.33 3964.9999999999995 1004.5 3964.9999999999995C1003.85 3964.9999999999995 1003.3 3964.5799999999995 1003.09 3963.9999999999995L1001.4100000000001 3963.9999999999995C1001.2 3964.5799999999995 1000.6500000000001 3964.9999999999995 1000.0000000000001 3964.9999999999995C999.3480000000001 3964.9999999999995 998.7980000000001 3964.5799999999995 998.5920000000001 3963.9999999999995L996.9080000000001 3963.9999999999995C996.7010000000001 3964.5799999999995 996.1520000000002 3964.9999999999995 995.5000000000001 3964.9999999999995C994.8480000000001 3964.9999999999995 994.2990000000001 3964.5799999999995 994.0920000000001 3963.9999999999995L992.4080000000001 3963.9999999999995C992.2010000000001 3964.5799999999995 991.6520000000002 3964.9999999999995 991.0000000000001 3964.9999999999995C990.3480000000001 3964.9999999999995 989.7980000000001 3964.5799999999995 989.5920000000001 3963.9999999999995L987.9080000000001 3963.9999999999995C987.7020000000001 3964.5799999999995 987.1520000000002 3964.9999999999995 986.5000000000001 3964.9999999999995C985.8480000000001 3964.9999999999995 985.2980000000001 3964.5799999999995 985.0920000000001 3963.9999999999995L983.4080000000001 3963.9999999999995C983.2020000000001 3964.5799999999995 982.6520000000002 3964.9999999999995 982.0000000000001 3964.9999999999995C981.3480000000001 3964.9999999999995 980.7980000000001 3964.5799999999995 980.5920000000001 3963.9999999999995L978.9080000000001 3963.9999999999995C978.7010000000001 3964.5799999999995 978.1520000000002 3964.9999999999995 977.5000000000001 3964.9999999999995C976.6720000000001 3964.9999999999995 976.0000000000001 3964.3299999999995 976.0000000000001 3963.4999999999995C976.0000000000001 3962.8499999999995 976.4190000000001 3962.2999999999997 977.0000000000001 3962.0899999999997L977.0000000000001 3960.41C976.4190000000001 3960.2 976.0000000000001 3959.6499999999996 976.0000000000001 3959C976.0000000000001 3958.35 976.4190000000001 3957.8 977.0000000000001 3957.59L977.0000000000001 3955.9100000000003C976.4190000000001 3955.7000000000003 976.0000000000001 3955.15 976.0000000000001 3954.5000000000005C976.0000000000001 3953.8500000000004 976.4190000000001 3953.3000000000006 977.0000000000001 3953.0900000000006L977.0000000000001 3951.4100000000008C976.4190000000001 3951.2000000000007 976.0000000000001 3950.6500000000005 976.0000000000001 3950.000000000001C976.0000000000001 3949.350000000001 976.4190000000001 3948.800000000001 977.0000000000001 3948.590000000001L977.0000000000001 3946.910000000001C976.4190000000001 3946.700000000001 976.0000000000001 3946.150000000001 976.0000000000001 3945.5000000000014C976.0000000000001 3944.8500000000013 976.4190000000001 3944.3000000000015 977.0000000000001 3944.0900000000015L977.0000000000001 3942.4100000000017C976.4190000000001 3942.2000000000016 976.0000000000001 3941.6500000000015 976.0000000000001 3941.000000000002C976.0000000000001 3940.3500000000017 976.4190000000001 3939.800000000002 977.0000000000001 3939.590000000002L977.0000000000001 3937.910000000002C976.4190000000001 3937.700000000002 976.0000000000001 3937.150000000002 976.0000000000001 3936.5000000000023C976.0000000000001 3935.6700000000023 976.6720000000001 3935.0000000000023 977.5000000000001 3935.0000000000023C978.1520000000002 3935.0000000000023 978.7010000000001 3935.4200000000023 978.9080000000001 3936.0000000000023L980.5920000000001 3936.0000000000023C980.7980000000001 3935.4200000000023 981.3480000000001 3935.0000000000023 982.0000000000001 3935.0000000000023C982.6520000000002 3935.0000000000023 983.2020000000001 3935.4200000000023 983.4080000000001 3936.0000000000023L985.0920000000001 3936.0000000000023C985.2980000000001 3935.4200000000023 985.8480000000001 3935.0000000000023 986.5000000000001 3935.0000000000023C987.1520000000002 3935.0000000000023 987.7020000000001 3935.4200000000023 987.9080000000001 3936.0000000000023L989.5920000000001 3936.0000000000023C989.7980000000001 3935.4200000000023 990.3480000000001 3935.0000000000023 991.0000000000001 3935.0000000000023C991.6520000000002 3935.0000000000023 992.2010000000001 3935.4200000000023 992.4080000000001 3936.0000000000023L994.0920000000001 3936.0000000000023C994.2990000000001 3935.4200000000023 994.8480000000001 3935.0000000000023 995.5000000000001 3935.0000000000023C996.1520000000002 3935.0000000000023 996.7010000000001 3935.4200000000023 996.9080000000001 3936.0000000000023L998.5920000000001 3936.0000000000023C998.7980000000001 3935.4200000000023 999.3480000000001 3935.0000000000023 1000.0000000000001 3935.0000000000023C1000.6500000000001 3935.0000000000023 1001.2000000000002 3935.4200000000023 1001.4100000000001 3936.0000000000023L1003.09 3936.0000000000023C1003.3000000000001 3935.4200000000023 1003.85 3935.0000000000023 1004.5 3935.0000000000023C1005.33 3935.0000000000023 1006 3935.6700000000023 1006 3936.5000000000023C1006 3937.1500000000024 1005.58 3937.700000000002 1005 3937.910000000002L1005 3939.590000000002C1005.58 3939.800000000002 1006 3940.350000000002 1006 3941.000000000002C1006 3941.650000000002 1005.58 3942.2000000000016 1005 3942.4100000000017L1005 3944.0900000000015C1005.58 3944.3000000000015 1006 3944.8500000000017 1006 3945.5000000000014C1006 3946.1500000000015 1005.58 3946.700000000001 1005 3946.910000000001L1005 3948.590000000001C1005.58 3948.800000000001 1006 3949.3500000000013 1006 3950.000000000001C1006 3950.650000000001 1005.58 3951.2000000000007 1005 3951.4100000000008L1005 3953.0900000000006C1005.58 3953.3000000000006 1006 3953.850000000001 1006 3954.5000000000005C1006 3955.1500000000005 1005.58 3955.7000000000003 1005 3955.9100000000003L1005 3957.59C1005.58 3957.8 1006 3958.3500000000004 1006 3959ZM1002 3939L980 3939L980 3961L1002 3961ZM989 3955L996 3946.5L1000.5 3953.5L1000.5 3959.5L981.5 3959.5L987.5 3953.5ZM989 3945C989 3943.34 987.657 3942 986 3942C984.343 3942 983 3943.34 983 3945C983 3946.65 984.343 3948 986 3948C987.657 3948 989 3946.65 989 3945Z " fill="#95e1d3" transform="matrix(1,0,0,1,-976,-3935)"></path></svg>