<svg xmlns="http://www.w3.org/2000/svg" width="28" height="32"><path d="M26.5 16.5h-3A1.5 1.5 0 0 1 22 15V9c0-.83.672-1.5 1.5-1.5h3c.83 0 1.5.67 1.5 1.5v6c0 .83-.67 1.5-1.5 1.5zm-11 8h-3A1.5 1.5 0 0 1 11 23v-6c0-.83.672-1.5 1.5-1.5h3c.828 0 1.5.67 1.5 1.5v6a1.5 1.5 0 0 1-1.5 1.5zm-11-4h-3A1.5 1.5 0 0 1 0 19v-6c0-.83.672-1.5 1.5-1.5h3c.828 0 1.5.67 1.5 1.5v6a1.5 1.5 0 0 1-1.5 1.5zm8-19a1.5 1.5 0 1 1 3 0V14h-3zm-11 0a1.5 1.5 0 1 1 3 0V10h-3zm3 29a1.5 1.5 0 1 1-3 0V22h3zm19-29c0-.83.67-1.5 1.5-1.5s1.5.67 1.5 1.5V6h-3zm-8 29a1.5 1.5 0 1 1-3 0V26h3zm11-12.5h-3v12.5c0 .83.67 1.5 1.5 1.5s1.5-.67 1.5-1.5z" fill="#95e1d3"/></svg>