<svg xmlns="http://www.w3.org/2000/svg" width="30" height="30"><path d="M30 24c0 .65-.42 1.2-1 1.41v1.68c.58.21 1 .76 1 1.41 0 .83-.67 1.5-1.5 1.5-.65 0-1.2-.42-1.41-1h-1.68c-.21.58-.76 1-1.41 1-.652 0-1.202-.42-1.408-1h-1.684c-.207.58-.756 1-1.408 1-.652 0-1.201-.42-1.408-1h-1.684c-.207.58-.756 1-1.408 1-.652 0-1.202-.42-1.408-1h-1.684c-.206.58-.756 1-1.408 1-.652 0-1.202-.42-1.408-1H7.408c-.206.58-.756 1-1.408 1-.652 0-1.202-.42-1.408-1H2.908A1.498 1.498 0 0 1 0 28.5c0-.65.419-1.2 1-1.41v-1.68c-.581-.21-1-.76-1-1.41 0-.65.419-1.2 1-1.41v-1.68c-.581-.21-1-.76-1-1.41 0-.65.419-1.2 1-1.41v-1.68c-.581-.21-1-.76-1-1.41 0-.65.419-1.2 1-1.41v-1.68c-.581-.21-1-.76-1-1.41 0-.65.419-1.2 1-1.41V7.41C.419 7.2 0 6.65 0 6c0-.65.419-1.2 1-1.41V2.91C.419 2.7 0 2.15 0 1.5A1.498 1.498 0 1 1 2.908 1h1.684C4.798.42 5.348 0 6 0c.652 0 1.202.42 1.408 1h1.684c.206-.58.756-1 1.408-1 .652 0 1.202.42 1.408 1h1.684c.206-.58.756-1 1.408-1 .652 0 1.201.42 1.408 1h1.684c.207-.58.756-1 1.408-1 .652 0 1.201.42 1.408 1h1.684c.206-.58.756-1 1.408-1 .65 0 1.2.42 1.41 1h1.68c.21-.58.76-1 1.41-1 .83 0 1.5.67 1.5 1.5 0 .65-.42 1.2-1 1.41v1.68c.58.21 1 .76 1 1.41 0 .65-.42 1.2-1 1.41v1.68c.58.21 1 .76 1 1.41 0 .65-.42 1.2-1 1.41v1.68c.58.21 1 .76 1 1.41 0 .65-.42 1.2-1 1.41v1.68c.58.21 1 .76 1 1.41 0 .65-.42 1.2-1 1.41v1.68c.58.21 1 .76 1 1.41zM26 4H4v22h22zM13 20l7-8.5 4.5 7v6h-19l6-6zm0-10c0-1.66-1.343-3-3-3s-3 1.34-3 3c0 1.65 1.343 3 3 3s3-1.35 3-3z" fill="#95e1d3"/></svg>